<?xml version="1.0" encoding="UTF-8"?>
<!-- Generator: Adobe Illustrator 28.0.0, SVG Export Plug-In . SVG Version: 6.00 Build 0)  -->
<svg xmlns="http://www.w3.org/2000/svg" xmlns:xlink="http://www.w3.org/1999/xlink" version="1.1" id="Слой_1" x="0px" y="0px" viewBox="0 0 194 32" style="enable-background:new 0 0 194 32;" xml:space="preserve">
<style type="text/css">
	.st0{fill:#FDD301;}
	.st1{fill:url(#SVGID_00000182496269033347169480000005115896521643894656_);}
	.st2{fill:url(#SVGID_00000117671814351394965470000007991250141288562068_);}
</style>
<g>
	<g>
		<defs>
			<path id="SVGID_1_" d="M114.6,20.9L114.6,20.9L114.6,20.9z M157.1,18.5L157.1,18.5L157.1,18.5z M52.1,9.8h-3.1h-0.2l-0.1,0.2     l-2.9,8.2L43,9.9l-0.1-0.2h-0.2h-3.1h-0.2V10v12v0.2h0.2H42h0.2V22v-3.6l0,0l-0.2-3.8l2.7,7.5l0.1,0.2H45h1.6h0.2l0.1-0.2     l2.7-7.5l-0.2,3.9l0,0V22v0.2h0.2h2.4h0.2V22V10V9.8H52.1z M88.5,9.8h-2.4h-0.2V10v12v0.2h0.2h2.4h0.2V22V10V9.8H88.5z M163,13.5     l1.2,3.7h-2.4L163,13.5z M164.3,9.8h-2.5h-0.2l-0.1,0.2l-4.1,12l-0.1,0.3h0.3h2.4h0.2l0.1-0.2l0.8-2.4h3.8l0.8,2.4l0.1,0.2h0.2     h2.4h0.3l-0.1-0.3l-4.1-12l-0.1-0.2H164.3z M68.2,9.8h-2.4h-0.2V10v12v0.2h0.2h7.7h0.2V22v-1.8v-0.2h-0.2h-5.1V10V9.8H68.2z      M77.5,12.1h1.3c0.4,0,0.7,0.1,1.1,0.2c0.3,0.1,0.6,0.3,0.8,0.6c0.2,0.3,0.4,0.6,0.5,0.9c0.1,0.3,0.2,0.7,0.2,1.2v2h0     c0,0.4-0.1,0.8-0.2,1.2c-0.1,0.4-0.3,0.7-0.5,0.9c-0.2,0.3-0.5,0.5-0.8,0.6c-0.3,0.1-0.7,0.2-1.1,0.2h-1.3V12.1z M79,9.8h-4.1     h-0.2V10v12v0.2h0.2H79v0c0.8,0,1.5-0.1,2.1-0.4c0.6-0.2,1.2-0.6,1.7-1.1c0.3-0.3,0.6-0.7,0.8-1.1c0.1-0.2,0.2-0.4,0.3-0.6     c0.2-0.6,0.4-1.3,0.4-2.1h0v-2c0-0.8-0.1-1.5-0.4-2.1c-0.2-0.6-0.6-1.2-1.1-1.7c-0.5-0.5-1.1-0.9-1.7-1.1     C80.5,9.9,79.8,9.8,79,9.8z M100.5,9.8h-2.4h-0.2V10v7.4l-4.4-7.5l-0.1-0.1h-0.1h-2.4h-0.2V10v12v0.2h0.2h2.4h0.2V22v-7.4     l4.4,7.5l0.1,0.1h0.1h2.4h0.2V22V10V9.8H100.5z M105.4,12.1h1.3c0.4,0,0.7,0.1,1.1,0.2c0.3,0.1,0.6,0.3,0.8,0.6     c0.2,0.3,0.4,0.6,0.5,0.9c0.1,0.3,0.2,0.7,0.2,1.2v2h0c0,0.4-0.1,0.8-0.2,1.2c-0.1,0.4-0.3,0.7-0.5,0.9c-0.2,0.3-0.5,0.5-0.8,0.6     c-0.3,0.1-0.7,0.2-1.1,0.2h-1.3V12.1z M106.9,9.8h-4.1h-0.2V10v12v0.2h0.2h4.1v0c0.8,0,1.5-0.1,2.1-0.4c0.6-0.2,1.2-0.6,1.7-1.1     c1-1,1.5-2.2,1.5-3.8v-2c0-0.8-0.1-1.5-0.4-2.1c-0.2-0.6-0.6-1.2-1.1-1.7c-0.5-0.5-1.1-0.9-1.7-1.1     C108.3,9.9,107.6,9.8,106.9,9.8z M145.7,9.8h-2.4H143V10v7.4l-4.4-7.5l-0.1-0.1h-0.1H136h-0.2V10v12v0.2h0.2h2.4h0.2V22v-7.4     l4.4,7.5l0.1,0.1h0.1h2.4h0.2V22V10V9.8H145.7z M150.6,16.9h2.1c0.3,0,0.5,0,0.7,0.1c0.2,0.1,0.3,0.2,0.5,0.3     c0.1,0.1,0.2,0.2,0.2,0.4c0,0,0,0.1,0,0.1c0.1,0.2,0.1,0.4,0.1,0.7h0v0c0,0.2,0,0.4-0.1,0.6c-0.1,0.2-0.2,0.3-0.3,0.4     c-0.1,0.1-0.3,0.2-0.5,0.3c-0.2,0.1-0.5,0.1-0.8,0.1h-2V16.9z M150.6,12.1h1.4c0.3,0,0.6,0,0.8,0.1c0.2,0.1,0.4,0.1,0.6,0.3     c0.1,0.1,0.2,0.2,0.3,0.3c0,0,0,0.1,0,0.1c0.1,0.2,0.1,0.4,0.1,0.6c0,0.2,0,0.4-0.1,0.6v0c-0.1,0.2-0.2,0.3-0.3,0.4l0,0     c-0.1,0.1-0.3,0.2-0.5,0.3c-0.2,0.1-0.5,0.1-0.8,0.1h-1.5V12.1z M147.9,9.8h-0.2V10v12v0.2h0.2h4.6c1,0,1.9-0.2,2.6-0.5     c0.1-0.1,0.3-0.1,0.4-0.2c0.1-0.1,0.2-0.2,0.4-0.2l0,0c0.3-0.3,0.6-0.6,0.8-1c0-0.1,0.1-0.1,0.1-0.2c0.2-0.5,0.3-1,0.3-1.6     c0-0.4,0-0.7-0.1-1c-0.1-0.3-0.2-0.6-0.4-0.9c-0.2-0.3-0.4-0.5-0.7-0.7c-0.1-0.1-0.3-0.1-0.4-0.2c0.2-0.1,0.4-0.3,0.5-0.4     c0.1-0.1,0.1-0.1,0.2-0.2c0-0.1,0.1-0.1,0.1-0.2l0,0v0c0.2-0.2,0.3-0.5,0.4-0.8c0.1-0.3,0.1-0.6,0.1-0.9c0-0.8-0.2-1.5-0.7-2.1     c-0.1-0.1-0.2-0.2-0.3-0.3c-0.1-0.1-0.2-0.2-0.3-0.3l0,0h0c-0.4-0.3-0.9-0.5-1.5-0.6c-0.6-0.1-1.2-0.2-1.9-0.2H147.9z M179.5,9.8     h-2.4h-0.2V10v7.4l-4.4-7.5l-0.1-0.1h-0.1h-2.4h-0.2V10v12v0.2h0.2h2.4h0.2V22v-7.4l4.4,7.5l0.1,0.1h0.1h2.4h0.2V22V10V9.8H179.5     z M184.1,9.8h-2.4h-0.2V10v12v0.2h0.2h2.4h0.2V22v-4.8h1l3.1,4.9l0.1,0.1h0.1h2.9h0.5l-0.3-0.4l-4.3-6.2l3.9-5.4l0.3-0.4h-0.5     h-2.9h-0.1l-0.1,0.1l-3.1,4.8h-0.7V10V9.8H184.1z M57.2,19.2c-0.2-0.2-0.3-0.5-0.4-0.8c0-0.1,0-0.1-0.1-0.2     c-0.1-0.4-0.2-0.8-0.2-1.2v-2.2c0-0.4,0.1-0.9,0.2-1.2c0.1-0.4,0.3-0.7,0.5-0.9c0.2-0.2,0.4-0.4,0.6-0.5c0,0,0.1-0.1,0.1-0.1     c0.3-0.1,0.6-0.2,1-0.2v0c0.5,0,1,0.1,1.3,0.4c0.1,0.1,0.1,0.1,0.2,0.2c0.1,0.1,0.1,0.1,0.2,0.2c0.4,0.6,0.6,1.3,0.6,2.1v2.2     c0,0.6-0.1,1.2-0.3,1.7c0,0.1-0.1,0.2-0.1,0.3c-0.1,0.1-0.1,0.2-0.2,0.2c-0.2,0.3-0.5,0.5-0.7,0.6c-0.3,0.1-0.6,0.2-1,0.2     c-0.5,0-1-0.1-1.3-0.4c-0.1-0.1-0.1-0.1-0.2-0.2C57.3,19.4,57.3,19.3,57.2,19.2L57.2,19.2L57.2,19.2z M56,10.4     c-0.2,0.1-0.3,0.2-0.5,0.3c-0.1,0.1-0.3,0.3-0.4,0.4c-0.5,0.5-0.8,1.1-1.1,1.7c-0.2,0.6-0.4,1.3-0.4,2.1v2.1h0     c0,0.8,0.1,1.5,0.4,2.1c0.2,0.6,0.6,1.2,1.1,1.7c0.4,0.4,0.9,0.8,1.4,1c0.1,0,0.2,0.1,0.3,0.1c0.6,0.2,1.3,0.4,2.1,0.4v0     c0.8,0,1.5-0.1,2.1-0.4c0.6-0.3,1.2-0.6,1.7-1.1c0.5-0.5,0.9-1.1,1.1-1.7c0.2-0.6,0.4-1.3,0.4-2.1v-2.1c0-0.8-0.1-1.5-0.4-2.1     c-0.2-0.6-0.6-1.2-1.1-1.7c-0.4-0.4-0.9-0.8-1.4-1c-0.1,0-0.2-0.1-0.3-0.1c-0.6-0.3-1.3-0.4-2.1-0.4v0C57.8,9.6,56.8,9.9,56,10.4      M118.2,9.6c-0.7,0-1.4,0.1-2,0.4c-0.6,0.2-1.1,0.6-1.6,1.1c-0.3,0.3-0.6,0.7-0.8,1.1c-0.1,0.2-0.2,0.4-0.3,0.6     c-0.2,0.6-0.3,1.3-0.3,2.1h0v0v2.4c0,0.8,0.1,1.4,0.4,2.1c0.1,0.3,0.3,0.6,0.4,0.9c0.2,0.3,0.4,0.5,0.6,0.8l0,0     c0.5,0.5,1,0.9,1.6,1.1c0.6,0.2,1.3,0.4,2,0.4v0c0.7,0,1.4-0.1,2-0.3c0.6-0.2,1.1-0.5,1.5-0.9c0.6-0.6,1-1.3,1.2-2.2     c0-0.2,0.1-0.3,0.1-0.5c0-0.2,0-0.4,0-0.5v0l0,0l0,0l0,0l-0.1-0.2h-0.2h-2.3h-0.2v0.2c0,0.4,0,0.7-0.1,1     c-0.1,0.3-0.2,0.5-0.4,0.7h0c-0.1,0.1-0.3,0.3-0.5,0.3c0,0-0.1,0-0.1,0c-0.3,0.1-0.5,0.1-0.9,0.1c-0.3,0-0.6-0.1-0.9-0.2     c-0.3-0.1-0.5-0.3-0.7-0.6l0,0c-0.4-0.5-0.6-1.2-0.6-2.1v-2.4c0-0.4,0-0.8,0.1-1.2c0.1-0.3,0.2-0.6,0.4-0.9v0     c0.2-0.3,0.4-0.5,0.7-0.6c0.2-0.1,0.5-0.2,0.9-0.2c0.5,0,1,0.1,1.3,0.3c0.1,0,0.1,0.1,0.2,0.1c0.1,0,0.1,0.1,0.1,0.1h0     c0.2,0.2,0.3,0.4,0.4,0.7c0.1,0.3,0.1,0.6,0.1,1v0.2h0.2h2.3h0.2l0.1-0.2l0,0l0,0l0,0c0-1-0.2-1.8-0.7-2.5     c-0.1-0.1-0.2-0.3-0.3-0.4c-0.1-0.1-0.2-0.2-0.3-0.4l0,0v0c-0.4-0.4-1-0.7-1.6-0.9C119.6,9.7,118.9,9.6,118.2,9.6L118.2,9.6z      M129.1,20c-0.5,0-1-0.1-1.3-0.4c-0.1-0.1-0.1-0.1-0.2-0.2c-0.1-0.1-0.1-0.1-0.2-0.2v0c-0.2-0.2-0.3-0.5-0.4-0.8     c0-0.1,0-0.1-0.1-0.2c-0.1-0.4-0.2-0.8-0.2-1.2v-2.2c0-0.4,0.1-0.9,0.2-1.2c0.1-0.4,0.3-0.7,0.5-0.9c0.2-0.2,0.4-0.4,0.6-0.5     c0,0,0.1-0.1,0.1-0.1c0.3-0.1,0.6-0.2,1-0.2v0c0.5,0,1,0.1,1.3,0.4c0.1,0.1,0.1,0.1,0.2,0.2c0.1,0.1,0.1,0.1,0.2,0.2     c0.2,0.2,0.3,0.5,0.4,0.8c0,0.1,0,0.1,0.1,0.2c0.1,0.4,0.2,0.8,0.2,1.2v0v2.2c0,0.6-0.1,1.2-0.3,1.7c0,0.1-0.1,0.2-0.1,0.3     c-0.1,0.1-0.1,0.2-0.2,0.2c-0.2,0.3-0.5,0.5-0.7,0.6C129.8,20,129.5,20,129.1,20C129.1,20,129.1,20,129.1,20 M129.1,9.6     c-1.1,0-2.1,0.3-2.9,0.8c-0.2,0.1-0.3,0.2-0.5,0.3c-0.1,0.1-0.3,0.3-0.4,0.4h0h0c-0.5,0.5-0.8,1.1-1.1,1.7     c-0.2,0.6-0.4,1.3-0.4,2.1v2.1c0,0.8,0.1,1.5,0.4,2.1c0.2,0.6,0.6,1.2,1.1,1.7c0.4,0.4,0.9,0.8,1.4,1c0.1,0,0.2,0.1,0.3,0.1     c0.6,0.2,1.3,0.4,2.1,0.4v0h0c0.8,0,1.5-0.1,2.1-0.4c0.6-0.3,1.2-0.6,1.7-1.1c0.5-0.5,0.9-1.1,1.1-1.7c0.2-0.6,0.4-1.3,0.4-2.1h0     v-2.1c0-0.8-0.1-1.5-0.4-2.1c-0.2-0.6-0.6-1.2-1.1-1.7c-0.4-0.4-0.9-0.8-1.4-1c-0.1,0-0.2-0.1-0.3-0.1     C130.6,9.7,129.9,9.6,129.1,9.6L129.1,9.6L129.1,9.6z"></path>
		</defs>
		<use xlink:href="#SVGID_1_" style="overflow:visible;fill:#FFFFFF;"></use>
		<clipPath id="SVGID_00000109724713631861499130000008836402201686579877_">
			<use xlink:href="#SVGID_1_" style="overflow:visible;"></use>
		</clipPath>
	</g>
	<g>
		<circle class="st0" cx="17.8" cy="16" r="15.8"></circle>
		
			<linearGradient id="SVGID_00000124124535732546437780000013531970930304506264_" gradientUnits="userSpaceOnUse" x1="24.7959" y1="20.4433" x2="9.9144" y2="5.5617">
			<stop offset="0" style="stop-color:#057DAF"></stop>
			<stop offset="1" style="stop-color:#063073"></stop>
		</linearGradient>
		<path style="fill:url(#SVGID_00000124124535732546437780000013531970930304506264_);" d="M30,11.7H17.8c-1.6,0-2.9-1.3-2.9-2.9    s1.3-2.9,2.9-2.9V3c-6.7,0-12.2,5-12.9,11.5h25.8C30.6,13.6,30.3,12.6,30,11.7z"></path>
		
			<linearGradient id="SVGID_00000178916134443605921350000017662344479381637293_" gradientUnits="userSpaceOnUse" x1="25.6899" y1="26.4383" x2="10.8084" y2="11.5567">
			<stop offset="0" style="stop-color:#C72127"></stop>
			<stop offset="1" style="stop-color:#EC1B2E"></stop>
		</linearGradient>
		<path style="fill:url(#SVGID_00000178916134443605921350000017662344479381637293_);" d="M4.9,17.4c0.1,1,0.3,2,0.7,2.9h12.2    c1.6,0,2.9,1.3,2.9,2.9c0,1.6-1.3,2.9-2.9,2.9V29c6.7,0,12.2-5,12.9-11.5H4.9z"></path>
	</g>
</g>
</svg>
